<svg width="1093" height="254" viewBox="0 0 1093 254" fill="none" xmlns="http://www.w3.org/2000/svg">
<path d="M297.875 34H309.75L319.75 35.875L329.125 39.625L335.375 43.375L341.625 49L346 53.375L351.625 62.75L354.75 70.25L356.625 77.125L357.875 87.75V93.375L356 107.125L352.875 117.125L347.25 127.125L340.375 134.625L335.375 139L324.75 144.625L316.625 147.125L308.5 148.375H300.375L289.75 146.5L279.75 142.75L272.875 138.375L266.625 132.75L262.25 128.375L256.625 119L253.5 110.875L251 99V82.125L252.875 72.75L256.625 62.75L261.625 54.625L268.5 47.125L276 41.5L285.375 37.125L294.125 34.625L297.875 34Z" fill="#0E274E"/>
<path d="M94.125 37.125H101L106 39.625L109.125 43.375L112.25 53.375L119.125 82.125L123.5 100.25L124.125 103.375H125.375L126 98.375L135.375 69L141 50.875L144.125 44L146.625 40.25L152.875 37.125H158.5L163.5 39.625L167.25 44.625L171 53.375L184.75 96.5L187.25 102.75L187.875 103.375L189.75 92.125L195.375 67.75L199.125 50.25L202.25 42.75L206 38.375L208.5 37.125H216.625L222.25 40.875L224.75 45.25V52.75L219.125 78.375L206.625 130.25L203.5 139L201 142.75L197.25 145.875L192.875 147.75H184.125L177.875 144.625L174.125 140.25L170.375 131.5L159.75 99.625L156 87.125V85.25L154.75 85.875L151 100.25L145.375 118.375L141 133.375L137.25 140.25L133.5 144.625L127.875 147.75H117.875L112.875 145.25L109.75 142.125L106.625 135.875L102.875 121.5L87.25 57.125L86 50.875V45.875L88.5 40.875L91.625 38.375L94.125 37.125Z" fill="#0E274E"/>
<path d="M412.25 39H429.125L440.375 39.625L447.875 41.5L456 45.875L462.25 51.5L466.625 58.375L469.75 68.375V75.875L466.625 85.875L462.25 92.75L459.125 95.875L452.875 99.625L447.25 101.5H445.375L447.875 106.5L461.625 120.25L468.5 129L470.375 132.125V139L467.875 144L463.5 147.75H454.75L449.125 144L443.5 138.375L437.25 130.25L430.375 121.5L422.25 111.5L418.5 106.5V105.25H417.25V124.625L416.625 136.5L414.125 143.375L409.75 147.125L408.5 147.75H400.375L395.375 145.25L392.25 140.25L391.625 138.375V49.625L394.125 44.625L398.5 40.875L401.625 39.625L412.25 39Z" fill="#0E274E"/>
<path d="M515.375 37.125H522.25L526.625 39.625L530.375 45.25L531 46.5L532.25 78.375L537.25 74L542.875 67.75L550.375 59L556 52.125L561.625 46.5L566 41.5L571 37.75L572.25 37.125H578.5L583.5 39.625L587.25 44.625L587.875 45.875V53.375L582.875 60.25L575.375 68.375L564.75 79L563.5 80.875H562.25L561.625 82.75L558.5 85.25L556.625 87.75L557.875 90.875L562.25 95.875L571 104.625L576 110.875L584.75 119.625L589.125 124.625L592.875 130.25L594.125 132.75V140.25L591.625 144L586 147.75H579.125L573.5 144L567.25 138.375L560.375 130.875L556 125.875L546 115.25L541.625 110.875L536 104L532.25 99.625L531.625 131.5L531 138.375L528.5 143.375L524.125 147.125L522.875 147.75H514.75L511 145.25L507.25 140.875L506 137.125L505.375 130.25V113.375L506 45.875L509.125 40.875L515.375 37.125Z" fill="#0E274E"/>
<path d="M720.375 35.25H734.75L744.125 37.125L749.125 39L754.125 42.75L757.25 48.375V52.75L754.75 57.75L750.375 62.125L749.125 62.75H741.625L732.875 60.25H721L716.625 62.75L716 64V71.5L719.125 73.375L728.5 77.125L745.375 82.75L754.125 87.75L759.75 93.375L764.125 102.125L764.75 104.625V115.875L762.25 125.875L757.875 133.375L754.75 137.75L747.25 143.375L736 147.125L732.25 147.75H713.5L702.25 145.25L696 142.75L689.75 137.125L687.25 133.375L686.625 129L687.875 124L690.375 120.25L695.375 117.75H700.375L712.875 121.5L718.5 123.375H727.875L734.125 120.25L736.625 116.5V110.25L735.375 107.125L732.25 105.875L723.5 102.125L703.5 95.25L696.625 90.875L692.25 87.125L689.125 80.875L687.875 76.5L687.25 70.875L688.5 59.625L692.875 50.875L698.5 44.625L704.75 40.25L713.5 36.5L720.375 35.25Z" fill="#0E274E"/>
<path d="M797.875 37.75H845.375L853.5 38.375L859.125 40.25L862.25 44L863.5 46.5V52.75L861 57.125L854.75 60.875L837.875 61.5V132.75L836 141.5L833.5 145.25L829.125 147.75H821L817.25 145.25L813.5 140.875L812.25 137.75L811.625 132.75V60.875H794.125L789.75 58.375L786 54L785.375 52.125V46.5L788.5 41.5L794.125 38.375L797.875 37.75Z" fill="#0E274E"/>
<path d="M297.875 57.125H310.375L316.625 59.625L322.25 64L326 69L329.125 75.875L331 83.375V97.125L328.5 107.75L324.75 115.25L320.375 120.25L314.125 124L310.375 125.25H298.5L291 122.125L284.75 116.5L281 110.25L278.5 102.125L277.875 99.625V80.875L281 71.5L285.375 64.625L291.625 59.625L297.875 57.125Z" fill="#FEFEFD"/>
<path d="M637.25 36.5L642.875 37.125L646.625 39.625L650.375 44.625L651 46.5L651.625 59.625V130.875L651 138.375L647.25 144.625L642.875 147.75L637.25 148.375L634.125 147.75L629.125 143.375L626.625 139.625L626 137.75V59.625L626.625 45.875L629.75 40.875L634.75 37.125L637.25 36.5Z" fill="#0E274E"/>
<path d="M927.25 97.125H935.375L945.375 102.125L946 99L946.625 97.75L950.375 97.125L955.375 99.625L957.25 100.875L957.875 103.375V140.875L954.75 145.875L953.5 147.125L948.5 147.75L944.125 144L940.375 145.25L936 147.75H927.25L921.625 145.25L916 140.875L912.25 135.25L909.75 127.125V118.375L911 112.75L914.75 106.5L919.125 101.5L925.375 97.75L927.25 97.125Z" fill="#0E274E"/>
<path d="M710.375 188.375H716.625L721 190.25L724.75 193.375L727.875 199L728.5 202.125V206.5L726 212.75L722.875 216.5L717.875 219H708.5L704.75 216.5L700.375 211.5L699.125 207.75V199.625L702.25 193.375L706.625 189.625L710.375 188.375Z" fill="#0E274E"/>
<path d="M827.875 188.375L834.125 189L837.875 190.875L842.25 195.875L843.5 198.375L844.125 202.125V207.125L842.25 212.125L838.5 216.5L834.125 219H825.375L820.375 216.5L816.625 212.125L814.75 207.125V201.5L816.625 195.875L821 190.875L824.75 189L827.875 188.375Z" fill="#0E274E"/>
<path d="M499.125 189.625H504.125L506.625 192.75L511 202.75V204H512.25L513.5 198.375L516 192.75L518.5 189.625H522.875L524.75 192.125L527.25 202.75L529.125 215.875V218.375L527.875 219H523.5L521 214L519.125 206.5L514.75 217.75L513.5 219.625L509.75 219L506.625 214.625L504.125 207.125L502.875 206.5L501.625 213.375L500.375 217.75L497.875 219.625L494.75 219L494.125 217.125L494.75 206.5L497.25 194L499.125 189.625Z" fill="#0E274E"/>
<path d="M57.875 189L60.375 189.625L62.875 192.75L67.25 203.375L69.125 198.375L71 191.5L72.25 190.25H77.25L77.875 190.875V195.25L74.125 211.5L71.625 217.75L70.375 219H66.625L63.5 216.5L59.75 207.125V205.875L57.875 207.75L54.125 217.125L51.625 219H48.5L45.375 215.25L42.25 205.25L39.75 193.375L40.375 190.25H45.375L47.875 195.25L50.375 203.375L52.875 198.375L56.625 190.25L57.875 189Z" fill="#0E274E"/>
<path d="M985.375 97.75H989.125L993.5 101.5L994.75 104V140.875L992.875 145.25L991 147.125L986 147.75L982.875 145.875L980.375 142.75V103.375L982.25 100.25L985.375 97.75Z" fill="#0E274E"/>
<path d="M416 60.875H434.75L439.75 63.375L443.5 67.75L444.75 71.5V76.5L441.625 81.5L437.875 84.625L433.5 85.875H417.25L416 82.125V60.875Z" fill="#FEFEFD"/>
<path d="M396 189.625H399.75L402.25 191.5V192.75H403.5L410.375 201.5L413.5 204V196.5L414.125 190.25L414.75 189.625L420.375 190.25L421 190.875V217.75L420.375 219H416.625L411.625 214.625L406 207.75L402.25 203.375L401.625 218.375L401 219H396.625L394.75 218.375V190.875L396 189.625Z" fill="#0E274E"/>
<path d="M972.25 189.625H975.375L978.5 192.125L982.875 197.125L989.125 204L990.375 204.625V190.875L991 190.25H996L997.25 190.875V217.75L996.625 219H992.875L987.875 214.625L979.75 204.625L978.5 204L977.875 217.75L977.25 219H972.25L971 218.375V191.5L972.25 189.625Z" fill="#0E274E"/>
<path d="M169.125 189H182.25L186 191.5L188.5 195.25V201.5L184.125 206.5H182.875L187.875 213.375L189.125 215.875L188.5 219L184.125 218.375L178.5 213.375L176 210.25H174.75L174.125 217.125L172.875 219H168.5L167.25 215.875V191.5L169.125 189Z" fill="#0E274E"/>
<path d="M860.375 189H873.5L877.25 190.875L879.75 194L881 197.125L880.375 201.5L876 206.5H874.75L881 215.25L880.375 217.75L879.125 219L876 218.375L872.25 215.25L867.25 209L866.625 209.625L866 217.75L864.75 219H860.375L859.125 215.25V192.125L860.375 189Z" fill="#0E274E"/>
<path d="M93.5 190.25H98.5L99.125 190.875L99.75 200.25H110.375L111 190.875L111.625 190.25H117.875V219H112.875L111 217.75V207.125L99.75 207.75L99.125 218.375L98.5 219H93.5L92.25 218.375L91.625 216.5V193.375L92.25 190.875L93.5 190.25Z" fill="#0E274E"/>
<path d="M930.375 189.625H934.125L936 191.5L936.625 193.375L937.25 207.75L938.5 210.875L939.125 211.5H944.75L946 210.25L946.625 206.5L947.25 193.375L949.125 190.25L949.75 189.625H953.5L955.375 194V207.75L953.5 213.375L950.375 216.5L947.25 218.375L946 219H937.875L932.875 216.5L929.75 212.125L928.5 206.5V193.375L929.75 190.25L930.375 189.625Z" fill="#0E274E"/>
<path d="M302.25 189.625H306L309.75 192.75L313.5 202.125L316.625 212.125L317.25 218.375L314.125 219L311.625 217.75L309.75 214.625H299.75L297.25 219L291.625 218.375L292.25 212.125L297.875 195.25L301.625 190.25L302.25 189.625Z" fill="#0E274E"/>
<path d="M781.625 190.875H794.75L799.125 193.375L801.625 197.75V202.75L797.25 207.75L794.125 209L787.25 209.625L786.625 218.375L785.375 219H781.625L779.75 217.125V193.375L781.625 190.875Z" fill="#0E274E"/>
<path d="M745.375 190.875H758.5L762.25 193.375L764.75 196.5L765.375 202.125L761.625 207.125L757.875 209L750.375 209.625V217.75L749.125 219H745.375L743.5 217.125V192.75L745.375 190.875Z" fill="#0E274E"/>
<path d="M647.875 188.375H654.125L657.25 190.25L658.5 192.125L657.875 194.625L656 195.25L648.5 195.875V198.375L654.75 200.875L659.75 204.625L661 207.125V211.5L658.5 215.875L655.375 218.375L654.125 219H644.75L641 216.5L640.375 215.875V212.125L641 211.5H652.25L652.875 209L642.875 204L640.375 200.875V194L643.5 190.25L647.875 188.375Z" fill="#0E274E"/>
<path d="M931.625 110.25L937.25 110.875L941.625 114.625L943.5 120.25L942.875 127.125L939.125 132.75L935.375 134.625H931L927.25 132.125L925.375 130.25L924.125 126.5V118.375L926 114.625L929.75 110.875L931.625 110.25Z" fill="#FEFEFD"/>
<path d="M544.75 190.875H559.125V196.5L557.875 197.125L551 197.75V200.875L558.5 201.5V206.5L557.875 207.125L550.375 207.75L551 212.125L559.125 213.375L559.75 218.375L559.125 219H544.75L542.875 217.125V192.75L544.75 190.875Z" fill="#0E274E"/>
<path d="M577.875 190.875H591.625V196.5L583.5 197.125L582.875 200.875L591 201.5V206.5L590.375 207.125L584.125 207.75L583.5 208.375V212.75H587.875L591.625 214V219L590.375 219.625H578.5L576 217.75L575.375 215.875V194L576.625 191.5L577.875 190.875Z" fill="#0E274E"/>
<path d="M363.5 190.875H378.5V196.5L370.375 197.75V200.25L377.875 201.5L378.5 202.125V205.875L376 207.125H369.75V212.125L370.375 212.75L378.5 213.375L379.125 214V219H364.125L362.875 218.375L362.25 208.375V193.375L363.5 190.875Z" fill="#0E274E"/>
<path d="M136 190.875H150.375V197.125L142.25 197.75V200.875L149.75 201.5L150.375 202.125V205.875L149.125 207.125L142.25 207.75V212.75L150.375 214L151 214.625V219H136L134.75 217.75V192.75L136 190.875Z" fill="#0E274E"/>
<path d="M205.375 190.875H221V196.5L211.625 197.125V200.875L220.375 201.5V206.5L212.25 207.75V212.75L220.375 214L221 214.625V218.375L220.375 219H206.625L205.375 218.375L204.75 216.5V191.5L205.375 190.875Z" fill="#0E274E"/>
<path d="M1088.5 189.625L1092.25 190.25L1092.88 193.375L1089.12 199.625L1086 204L1084.75 212.125L1083.5 218.375L1082.88 219L1078.5 218.375L1077.25 215.25L1076.62 205.25L1069.75 194L1069.12 190.875L1069.75 190.25H1074.12L1077.25 192.75L1080.38 196.5L1082.25 197.125L1083.5 194.625L1086.62 190.875L1088.5 189.625Z" fill="#0E274E"/>
<path d="M259.75 190.875H279.125L279.75 191.5L279.125 195.875L274.75 197.125L274.125 214.625L272.875 218.375L271.625 219H267.25L266 217.75L265.375 197.75L264.75 197.125L260.375 196.5L259.125 192.75L259.75 190.875Z" fill="#0E274E"/>
<path d="M436.625 190.875H455.375L456.625 193.375L455.375 195.875L451 197.75L449.75 217.75L447.875 219H444.125L442.875 217.75L442.25 214L441.625 197.125L436.625 196.5L436 195.25V191.5L436.625 190.875Z" fill="#0E274E"/>
<path d="M1035.38 190.875H1054.75L1055.38 193.375L1054.12 195.875L1049.75 197.75L1049.12 214.625L1048.5 218.375H1042.25L1041 214L1040.38 197.125L1035.38 195.25L1034.75 194.625V191.5L1035.38 190.875Z" fill="#0E274E"/>
<path d="M607.875 190.875H626.625L627.25 194L626.625 196.5L625.375 197.125H621.625L621 216.5L618.5 219H615.375L614.125 217.75L613.5 214.625L612.875 197.75L607.25 195.875V191.5L607.875 190.875Z" fill="#0E274E"/>
<path d="M894.75 190.875H914.125V195.25L912.875 196.5L908.5 197.125V210.875L907.875 218.375L904.75 219L901 217.75L900.375 205.875V197.125L894.75 195.875L894.125 195.25V191.5L894.75 190.875Z" fill="#0E274E"/>
<path d="M334.125 189.625L338.5 190.25L339.125 190.875L340.375 213.375L347.875 214L348.5 214.625V219H334.125L332.25 217.125L331.625 207.75V191.5L334.125 189.625Z" fill="#0E274E"/>
<path d="M710.375 195.25H717.25L720.375 198.375L721 200.25V205.875L719.75 209.625L717.25 212.125L714.75 213.375H711L707.875 210.875L706 205.875V200.875L708.5 196.5L710.375 195.25Z" fill="#FEFEFD"/>
<path d="M826.625 195.25H832.875L836 197.75L836.625 199.625V206.5L834.125 211.5L830.375 213.375L826 212.75L822.875 209L822.25 207.125V200.25L824.75 196.5L826.625 195.25Z" fill="#FEFEFD"/>
<path d="M984.75 77.125H989.125L992.875 79L995.375 82.125V87.75L992.875 91.5L990.375 93.375H984.75L981 90.875L979.125 87.125V83.375L981.625 79L984.75 77.125Z" fill="#0E274E"/>
<path d="M1012.88 190.25H1019.75V218.375L1019.12 219L1013.5 218.375L1012.88 217.75V190.25Z" fill="#0E274E"/>
<path d="M878.5 132.125H883.5L886.625 134L888.5 137.125L889.125 141.5L886.625 145.25L883.5 147.75H879.125L875.375 145.25L873.5 142.125V137.75L876 134L878.5 132.125Z" fill="#0E274E"/>
<path d="M174.125 194.625H179.75L182.25 197.125L181.625 200.25L178.5 201.5H174.75L174.125 200.875V194.625Z" fill="#FEFEFD"/>
<path d="M866.625 194.625H871L873.5 195.875L874.125 199L872.25 200.875L867.25 201.5L866 199.625V195.25L866.625 194.625Z" fill="#FEFEFD"/>
<path d="M751 196.5L757.25 197.125L757.875 197.75V202.125L757.25 202.75H751L750.375 202.125V197.125L751 196.5Z" fill="#FEFEFD"/>
<path d="M787.875 197.125H793.5L794.125 197.75V202.125L792.875 202.75H787.875L787.25 202.125V197.75L787.875 197.125Z" fill="#FEFEFD"/>
<path d="M303.5 198.375L305.375 199L307.25 204.625L306.625 207.125H301.625L302.25 202.125L303.5 198.375Z" fill="#FEFEFD"/>
</svg>
