<svg width="734" height="507" viewBox="0 0 734 507" fill="none" xmlns="http://www.w3.org/2000/svg">
<path d="M119.875 41.375H138.625L151.125 43.875L163 48.25L173.625 53.875L182.375 60.125L190.5 67.625L194.875 72L200.5 79.5L205.5 88.25L210.5 100.75L213 110.125L214.25 117V134.5L212.375 145.75L203 177L200.5 189.5V217L203.625 232.625L206.75 243.25L211.75 254.5L218.625 266.375L224.25 273.875L231.75 282.625L241.125 290.75L251.75 298.25L264.875 305.125L276.125 309.5L290.5 313.25L309.875 317.625L320.5 321.375L333.625 328.25L341.75 334.5L351.125 343.25L356.75 350.125L363 360.75L366.75 368.875L370.5 380.75L372.375 390.75L373 402L371.125 417L368.625 426.375L363.625 438.25L358 448.25L351.125 456.375L344.875 463.25L336.125 470.125L328 475.125L316.75 480.125L306.75 483.25L296.125 485.125H278L264.875 482.625L255.5 479.5L245.5 474.5L237.375 469.5L231.75 465.125L225.5 459.5L219.875 453.25L215.5 447L209.875 437L205.5 426.375L202.375 413.875L201.75 410.125V391.375L204.875 376.375L212.375 352.625L215.5 337L216.125 330.75V316.375L213.625 299.5L209.875 286.375L206.125 276.375L200.5 265.75L193.625 255.75L188.625 249.5L181.125 241.375L174.25 235.125L166.125 229.5L154.875 223.25L144.875 218.875L131.125 214.5L105.5 208.875L93.625 204.5L83.625 198.875L76.125 193.25L69.25 187.625L63 181.375L56.75 172.625L51.125 162.625L46.75 151.375L43.625 137.625L43 132V123.875L44.875 110.125L48.625 97L53.625 85.75L59.875 76.375L66.75 68.25L71.75 62.625L79.875 56.375L89.875 50.75L98.625 46.375L111.125 42.625L119.875 41.375Z" fill="#0E274E"/>
<path d="M119.875 41.375H138.625L151.125 43.875L163 48.25L173.625 53.875L182.375 60.125L190.5 67.625L194.875 72L200.5 79.5L205.5 88.25L210.5 100.75L213 110.125L214.25 117V134.5L212.375 145.75L203 177L200.5 189.5V217L203.625 232.625L206.75 243.25L211.75 254.5L218.625 266.375L224.25 273.875L231.75 282.625L241.125 290.75L251.75 298.25L264.875 305.125L276.125 309.5L290.5 313.25L309.875 317.625L320.5 321.375L333.625 328.25L341.75 334.5L351.125 343.25L356.75 350.125L363 360.75L366.75 368.875L370.5 380.75L372.375 390.75L373 402L371.125 417L368.625 426.375L363.625 438.25L358 448.25L351.125 456.375L344.875 463.25L336.125 470.125L328 475.125L316.75 480.125L306.75 483.25L296.125 485.125H278L264.875 482.625L255.5 479.5L245.5 474.5L237.375 469.5L231.75 465.125L225.5 459.5L219.875 453.25L215.5 447L209.875 437L205.5 426.375L202.375 413.875L201.75 410.125V391.375L204.875 376.375L212.375 352.625L215.5 337L216.125 330.75V316.375L213.625 299.5L209.875 286.375L206.125 276.375L200.5 265.75L193.625 255.75L188.625 249.5L181.125 241.375L174.25 235.125L166.125 229.5L154.875 223.25L144.875 218.875L131.125 214.5L105.5 208.875L93.625 204.5L83.625 198.875L76.125 193.25L69.25 187.625L63 181.375L56.75 172.625L51.125 162.625L46.75 151.375L43.625 137.625L43 132V123.875L44.875 110.125L48.625 97L53.625 85.75L59.875 76.375L66.75 68.25L71.75 62.625L79.875 56.375L89.875 50.75L98.625 46.375L111.125 42.625L119.875 41.375Z" fill="#0E274E"/>
<path d="M366.125 41.375H386.75L399.25 43.875L410.5 48.25L420.5 53.25L427.375 57.625L434.25 63.25L441.125 69.5L447.375 77.625L453.625 88.875L458 98.875L461.125 109.5L462.375 117V135.125L459.875 148.25L451.75 174.5L448.625 190.125L448 195.75V211.375L449.875 224.5L453.625 239.5L457.375 248.875L462.375 258.875L468.625 268.875L473.625 275.125L479.25 281.375L486.75 288.875L495.5 295.75L505.5 301.375L518.625 307.625L531.125 311.375L553 316.375L563.625 319.5L578 326.375L587.375 332.625L594.875 339.5L602.375 347L608 355.125L614.25 367L618 377.625L619.875 386.375L621.125 398.875L620.5 408.875L618 421.375L614.25 432.625L609.25 442.625L604.875 449.5L598 458.25L592.375 463.875L583 470.75L571.125 477.625L563.625 480.75L548.625 484.5L543.625 485.125H525.5L513 482.625L500.5 478.25L489.875 472.625L479.875 465.125L467.375 452.625L461.75 443.875L456.75 434.5L453 424.5L450.5 413.875L449.875 410.125V390.125L453.625 374.5L459.25 357L463 340.75L464.25 331.375V317L462.375 302.625L458.625 287.625L454.875 277.625L448.625 265.75L441.125 254.5L434.25 246.375L428.625 240.125L418 232L409.25 226.375L399.25 221.375L386.75 216.375L368 212L353 208.875L340.5 203.875L331.125 198.875L320.5 190.75L313 183.875L304.875 172.625L296.75 157L293 144.5L291.125 132V123.875L292.375 112.625L295.5 100.75L299.25 90.75L303.625 82L308.625 75.125L314.25 68.25L322.375 60.125L333 53.25L343 48.25L351.75 44.5L361.75 42L366.125 41.375Z" fill="#0E274E"/>
<path d="M614.875 41.375H635.5L645.5 43.25L656.125 47L666.125 52L673.625 56.375L681.75 62.625L690.5 71.375L697.375 80.75L703.625 92.625L707.375 102.625L709.875 113.875L710.5 117.625V136.375L708 148.25L704.25 159.5L699.25 169.5L694.25 177L687.375 185.125L679.875 192.625L670.5 198.875L659.875 204.5L648 208.875L640.5 210.75L630.5 212H619.25L606.125 210.125L597.375 207.625L586.125 202.625L577.375 197.625L569.25 191.375L561.75 184.5L556.75 178.25L551.125 169.5L544.875 156.375L541.75 147L539.875 138.25V116.375L543 102L548 88.875L553 80.125L558.625 72.625L564.25 66.375L569.25 61.375L578.625 54.5L591.75 47.625L602.375 43.875L610.5 42L614.875 41.375Z" fill="#0E274E"/>
</svg>
