<svg width="1135" height="863" viewBox="0 0 1135 863" fill="none" xmlns="http://www.w3.org/2000/svg">
<path d="M302.875 615H314.75L324.75 616.875L334.125 620.625L340.375 624.375L346.625 630L351 634.375L356.625 643.75L359.75 651.25L361.625 658.125L362.875 668.75V674.375L361 688.125L357.875 698.125L352.25 708.125L345.375 715.625L340.375 720L329.75 725.625L321.625 728.125L313.5 729.375H305.375L294.75 727.5L284.75 723.75L277.875 719.375L271.625 713.75L267.25 709.375L261.625 700L258.5 691.875L256 680V663.125L257.875 653.75L261.625 643.75L266.625 635.625L273.5 628.125L281 622.5L290.375 618.125L299.125 615.625L302.875 615Z" fill="#0E274E"/>
<path d="M99.125 618.125H106L111 620.625L114.125 624.375L117.25 634.375L124.125 663.125L128.5 681.25L129.125 684.375H130.375L131 679.375L140.375 650L146 631.875L149.125 625L151.625 621.25L157.875 618.125H163.5L168.5 620.625L172.25 625.625L176 634.375L189.75 677.5L192.25 683.75L192.875 684.375L194.75 673.125L200.375 648.75L204.125 631.25L207.25 623.75L211 619.375L213.5 618.125H221.625L227.25 621.875L229.75 626.25V633.75L224.125 659.375L211.625 711.25L208.5 720L206 723.75L202.25 726.875L197.875 728.75H189.125L182.875 725.625L179.125 721.25L175.375 712.5L164.75 680.625L161 668.125V666.25L159.75 666.875L156 681.25L150.375 699.375L146 714.375L142.25 721.25L138.5 725.625L132.875 728.75H122.875L117.875 726.25L114.75 723.125L111.625 716.875L107.875 702.5L92.25 638.125L91 631.875V626.875L93.5 621.875L96.625 619.375L99.125 618.125Z" fill="#0E274E"/>
<path d="M417.25 620H434.125L445.375 620.625L452.875 622.5L461 626.875L467.25 632.5L471.625 639.375L474.75 649.375V656.875L471.625 666.875L467.25 673.75L464.125 676.875L457.875 680.625L452.25 682.5H450.375L452.875 687.5L466.625 701.25L473.5 710L475.375 713.125V720L472.875 725L468.5 728.75H459.75L454.125 725L448.5 719.375L442.25 711.25L435.375 702.5L427.25 692.5L423.5 687.5V686.25H422.25V705.625L421.625 717.5L419.125 724.375L414.75 728.125L413.5 728.75H405.375L400.375 726.25L397.25 721.25L396.625 719.375V630.625L399.125 625.625L403.5 621.875L406.625 620.625L417.25 620Z" fill="#0E274E"/>
<path d="M520.375 618.125H527.25L531.625 620.625L535.375 626.25L536 627.5L537.25 659.375L542.25 655L547.875 648.75L555.375 640L561 633.125L566.625 627.5L571 622.5L576 618.75L577.25 618.125H583.5L588.5 620.625L592.25 625.625L592.875 626.875V634.375L587.875 641.25L580.375 649.375L569.75 660L568.5 661.875H567.25L566.625 663.75L563.5 666.25L561.625 668.75L562.875 671.875L567.25 676.875L576 685.625L581 691.875L589.75 700.625L594.125 705.625L597.875 711.25L599.125 713.75V721.25L596.625 725L591 728.75H584.125L578.5 725L572.25 719.375L565.375 711.875L561 706.875L551 696.25L546.625 691.875L541 685L537.25 680.625L536.625 712.5L536 719.375L533.5 724.375L529.125 728.125L527.875 728.75H519.75L516 726.25L512.25 721.875L511 718.125L510.375 711.25V694.375L511 626.875L514.125 621.875L520.375 618.125Z" fill="#0E274E"/>
<path d="M725.375 616.25H739.75L749.125 618.125L754.125 620L759.125 623.75L762.25 629.375V633.75L759.75 638.75L755.375 643.125L754.125 643.75H746.625L737.875 641.25H726L721.625 643.75L721 645V652.5L724.125 654.375L733.5 658.125L750.375 663.75L759.125 668.75L764.75 674.375L769.125 683.125L769.75 685.625V696.875L767.25 706.875L762.875 714.375L759.75 718.75L752.25 724.375L741 728.125L737.25 728.75H718.5L707.25 726.25L701 723.75L694.75 718.125L692.25 714.375L691.625 710L692.875 705L695.375 701.25L700.375 698.75H705.375L717.875 702.5L723.5 704.375H732.875L739.125 701.25L741.625 697.5V691.25L740.375 688.125L737.25 686.875L728.5 683.125L708.5 676.25L701.625 671.875L697.25 668.125L694.125 661.875L692.875 657.5L692.25 651.875L693.5 640.625L697.875 631.875L703.5 625.625L709.75 621.25L718.5 617.5L725.375 616.25Z" fill="#0E274E"/>
<path d="M802.875 618.75H850.375L858.5 619.375L864.125 621.25L867.25 625L868.5 627.5V633.75L866 638.125L859.75 641.875L842.875 642.5V713.75L841 722.5L838.5 726.25L834.125 728.75H826L822.25 726.25L818.5 721.875L817.25 718.75L816.625 713.75V641.875H799.125L794.75 639.375L791 635L790.375 633.125V627.5L793.5 622.5L799.125 619.375L802.875 618.75Z" fill="#0E274E"/>
<path d="M302.875 638.125H315.375L321.625 640.625L327.25 645L331 650L334.125 656.875L336 664.375V678.125L333.5 688.75L329.75 696.25L325.375 701.25L319.125 705L315.375 706.25H303.5L296 703.125L289.75 697.5L286 691.25L283.5 683.125L282.875 680.625V661.875L286 652.5L290.375 645.625L296.625 640.625L302.875 638.125Z" fill="#FEFEFD"/>
<path d="M642.25 617.5L647.875 618.125L651.625 620.625L655.375 625.625L656 627.5L656.625 640.625V711.875L656 719.375L652.25 725.625L647.875 728.75L642.25 729.375L639.125 728.75L634.125 724.375L631.625 720.625L631 718.75V640.625L631.625 626.875L634.75 621.875L639.75 618.125L642.25 617.5Z" fill="#0E274E"/>
<path d="M932.25 678.125H940.375L950.375 683.125L951 680L951.625 678.75L955.375 678.125L960.375 680.625L962.25 681.875L962.875 684.375V721.875L959.75 726.875L958.5 728.125L953.5 728.75L949.125 725L945.375 726.25L941 728.75H932.25L926.625 726.25L921 721.875L917.25 716.25L914.75 708.125V699.375L916 693.75L919.75 687.5L924.125 682.5L930.375 678.75L932.25 678.125Z" fill="#0E274E"/>
<path d="M715.375 769.375H721.625L726 771.25L729.75 774.375L732.875 780L733.5 783.125V787.5L731 793.75L727.875 797.5L722.875 800H713.5L709.75 797.5L705.375 792.5L704.125 788.75V780.625L707.25 774.375L711.625 770.625L715.375 769.375Z" fill="#0E274E"/>
<path d="M832.875 769.375L839.125 770L842.875 771.875L847.25 776.875L848.5 779.375L849.125 783.125V788.125L847.25 793.125L843.5 797.5L839.125 800H830.375L825.375 797.5L821.625 793.125L819.75 788.125V782.5L821.625 776.875L826 771.875L829.75 770L832.875 769.375Z" fill="#0E274E"/>
<path d="M504.125 770.625H509.125L511.625 773.75L516 783.75V785H517.25L518.5 779.375L521 773.75L523.5 770.625H527.875L529.75 773.125L532.25 783.75L534.125 796.875V799.375L532.875 800H528.5L526 795L524.125 787.5L519.75 798.75L518.5 800.625L514.75 800L511.625 795.625L509.125 788.125L507.875 787.5L506.625 794.375L505.375 798.75L502.875 800.625L499.75 800L499.125 798.125L499.75 787.5L502.25 775L504.125 770.625Z" fill="#0E274E"/>
<path d="M62.875 770L65.375 770.625L67.875 773.75L72.25 784.375L74.125 779.375L76 772.5L77.25 771.25H82.25L82.875 771.875V776.25L79.125 792.5L76.625 798.75L75.375 800H71.625L68.5 797.5L64.75 788.125V786.875L62.875 788.75L59.125 798.125L56.625 800H53.5L50.375 796.25L47.25 786.25L44.75 774.375L45.375 771.25H50.375L52.875 776.25L55.375 784.375L57.875 779.375L61.625 771.25L62.875 770Z" fill="#0E274E"/>
<path d="M990.375 678.75H994.125L998.5 682.5L999.75 685V721.875L997.875 726.25L996 728.125L991 728.75L987.875 726.875L985.375 723.75V684.375L987.25 681.25L990.375 678.75Z" fill="#0E274E"/>
<path d="M421 641.875H439.75L444.75 644.375L448.5 648.75L449.75 652.5V657.5L446.625 662.5L442.875 665.625L438.5 666.875H422.25L421 663.125V641.875Z" fill="#FEFEFD"/>
<path d="M401 770.625H404.75L407.25 772.5V773.75H408.5L415.375 782.5L418.5 785V777.5L419.125 771.25L419.75 770.625L425.375 771.25L426 771.875V798.75L425.375 800H421.625L416.625 795.625L411 788.75L407.25 784.375L406.625 799.375L406 800H401.625L399.75 799.375V771.875L401 770.625Z" fill="#0E274E"/>
<path d="M977.25 770.625H980.375L983.5 773.125L987.875 778.125L994.125 785L995.375 785.625V771.875L996 771.25H1001L1002.25 771.875V798.75L1001.62 800H997.875L992.875 795.625L984.75 785.625L983.5 785L982.875 798.75L982.25 800H977.25L976 799.375V772.5L977.25 770.625Z" fill="#0E274E"/>
<path d="M174.125 770H187.25L191 772.5L193.5 776.25V782.5L189.125 787.5H187.875L192.875 794.375L194.125 796.875L193.5 800L189.125 799.375L183.5 794.375L181 791.25H179.75L179.125 798.125L177.875 800H173.5L172.25 796.875V772.5L174.125 770Z" fill="#0E274E"/>
<path d="M865.375 770H878.5L882.25 771.875L884.75 775L886 778.125L885.375 782.5L881 787.5H879.75L886 796.25L885.375 798.75L884.125 800L881 799.375L877.25 796.25L872.25 790L871.625 790.625L871 798.75L869.75 800H865.375L864.125 796.25V773.125L865.375 770Z" fill="#0E274E"/>
<path d="M98.5 771.25H103.5L104.125 771.875L104.75 781.25H115.375L116 771.875L116.625 771.25H122.875V800H117.875L116 798.75V788.125L104.75 788.75L104.125 799.375L103.5 800H98.5L97.25 799.375L96.625 797.5V774.375L97.25 771.875L98.5 771.25Z" fill="#0E274E"/>
<path d="M935.375 770.625H939.125L941 772.5L941.625 774.375L942.25 788.75L943.5 791.875L944.125 792.5H949.75L951 791.25L951.625 787.5L952.25 774.375L954.125 771.25L954.75 770.625H958.5L960.375 775V788.75L958.5 794.375L955.375 797.5L952.25 799.375L951 800H942.875L937.875 797.5L934.75 793.125L933.5 787.5V774.375L934.75 771.25L935.375 770.625Z" fill="#0E274E"/>
<path d="M307.25 770.625H311L314.75 773.75L318.5 783.125L321.625 793.125L322.25 799.375L319.125 800L316.625 798.75L314.75 795.625H304.75L302.25 800L296.625 799.375L297.25 793.125L302.875 776.25L306.625 771.25L307.25 770.625Z" fill="#0E274E"/>
<path d="M786.625 771.875H799.75L804.125 774.375L806.625 778.75V783.75L802.25 788.75L799.125 790L792.25 790.625L791.625 799.375L790.375 800H786.625L784.75 798.125V774.375L786.625 771.875Z" fill="#0E274E"/>
<path d="M750.375 771.875H763.5L767.25 774.375L769.75 777.5L770.375 783.125L766.625 788.125L762.875 790L755.375 790.625V798.75L754.125 800H750.375L748.5 798.125V773.75L750.375 771.875Z" fill="#0E274E"/>
<path d="M652.875 769.375H659.125L662.25 771.25L663.5 773.125L662.875 775.625L661 776.25L653.5 776.875V779.375L659.75 781.875L664.75 785.625L666 788.125V792.5L663.5 796.875L660.375 799.375L659.125 800H649.75L646 797.5L645.375 796.875V793.125L646 792.5H657.25L657.875 790L647.875 785L645.375 781.875V775L648.5 771.25L652.875 769.375Z" fill="#0E274E"/>
<path d="M936.625 691.25L942.25 691.875L946.625 695.625L948.5 701.25L947.875 708.125L944.125 713.75L940.375 715.625H936L932.25 713.125L930.375 711.25L929.125 707.5V699.375L931 695.625L934.75 691.875L936.625 691.25Z" fill="#FEFEFD"/>
<path d="M549.75 771.875H564.125V777.5L562.875 778.125L556 778.75V781.875L563.5 782.5V787.5L562.875 788.125L555.375 788.75L556 793.125L564.125 794.375L564.75 799.375L564.125 800H549.75L547.875 798.125V773.75L549.75 771.875Z" fill="#0E274E"/>
<path d="M582.875 771.875H596.625V777.5L588.5 778.125L587.875 781.875L596 782.5V787.5L595.375 788.125L589.125 788.75L588.5 789.375V793.75H592.875L596.625 795V800L595.375 800.625H583.5L581 798.75L580.375 796.875V775L581.625 772.5L582.875 771.875Z" fill="#0E274E"/>
<path d="M368.5 771.875H383.5V777.5L375.375 778.75V781.25L382.875 782.5L383.5 783.125V786.875L381 788.125H374.75V793.125L375.375 793.75L383.5 794.375L384.125 795V800H369.125L367.875 799.375L367.25 789.375V774.375L368.5 771.875Z" fill="#0E274E"/>
<path d="M141 771.875H155.375V778.125L147.25 778.75V781.875L154.75 782.5L155.375 783.125V786.875L154.125 788.125L147.25 788.75V793.75L155.375 795L156 795.625V800H141L139.75 798.75V773.75L141 771.875Z" fill="#0E274E"/>
<path d="M210.375 771.875H226V777.5L216.625 778.125V781.875L225.375 782.5V787.5L217.25 788.75V793.75L225.375 795L226 795.625V799.375L225.375 800H211.625L210.375 799.375L209.75 797.5V772.5L210.375 771.875Z" fill="#0E274E"/>
<path d="M1093.5 770.625L1097.25 771.25L1097.88 774.375L1094.12 780.625L1091 785L1089.75 793.125L1088.5 799.375L1087.88 800L1083.5 799.375L1082.25 796.25L1081.62 786.25L1074.75 775L1074.12 771.875L1074.75 771.25H1079.12L1082.25 773.75L1085.38 777.5L1087.25 778.125L1088.5 775.625L1091.62 771.875L1093.5 770.625Z" fill="#0E274E"/>
<path d="M264.75 771.875H284.125L284.75 772.5L284.125 776.875L279.75 778.125L279.125 795.625L277.875 799.375L276.625 800H272.25L271 798.75L270.375 778.75L269.75 778.125L265.375 777.5L264.125 773.75L264.75 771.875Z" fill="#0E274E"/>
<path d="M441.625 771.875H460.375L461.625 774.375L460.375 776.875L456 778.75L454.75 798.75L452.875 800H449.125L447.875 798.75L447.25 795L446.625 778.125L441.625 777.5L441 776.25V772.5L441.625 771.875Z" fill="#0E274E"/>
<path d="M1040.38 771.875H1059.75L1060.38 774.375L1059.12 776.875L1054.75 778.75L1054.12 795.625L1053.5 799.375H1047.25L1046 795L1045.38 778.125L1040.38 776.25L1039.75 775.625V772.5L1040.38 771.875Z" fill="#0E274E"/>
<path d="M612.875 771.875H631.625L632.25 775L631.625 777.5L630.375 778.125H626.625L626 797.5L623.5 800H620.375L619.125 798.75L618.5 795.625L617.875 778.75L612.25 776.875V772.5L612.875 771.875Z" fill="#0E274E"/>
<path d="M899.75 771.875H919.125V776.25L917.875 777.5L913.5 778.125V791.875L912.875 799.375L909.75 800L906 798.75L905.375 786.875V778.125L899.75 776.875L899.125 776.25V772.5L899.75 771.875Z" fill="#0E274E"/>
<path d="M339.125 770.625L343.5 771.25L344.125 771.875L345.375 794.375L352.875 795L353.5 795.625V800H339.125L337.25 798.125L336.625 788.75V772.5L339.125 770.625Z" fill="#0E274E"/>
<path d="M715.375 776.25H722.25L725.375 779.375L726 781.25V786.875L724.75 790.625L722.25 793.125L719.75 794.375H716L712.875 791.875L711 786.875V781.875L713.5 777.5L715.375 776.25Z" fill="#FEFEFD"/>
<path d="M831.625 776.25H837.875L841 778.75L841.625 780.625V787.5L839.125 792.5L835.375 794.375L831 793.75L827.875 790L827.25 788.125V781.25L829.75 777.5L831.625 776.25Z" fill="#FEFEFD"/>
<path d="M989.75 658.125H994.125L997.875 660L1000.38 663.125V668.75L997.875 672.5L995.375 674.375H989.75L986 671.875L984.125 668.125V664.375L986.625 660L989.75 658.125Z" fill="#0E274E"/>
<path d="M1017.88 771.25H1024.75V799.375L1024.12 800L1018.5 799.375L1017.88 798.75V771.25Z" fill="#0E274E"/>
<path d="M883.5 713.125H888.5L891.625 715L893.5 718.125L894.125 722.5L891.625 726.25L888.5 728.75H884.125L880.375 726.25L878.5 723.125V718.75L881 715L883.5 713.125Z" fill="#0E274E"/>
<path d="M179.125 775.625H184.75L187.25 778.125L186.625 781.25L183.5 782.5H179.75L179.125 781.875V775.625Z" fill="#FEFEFD"/>
<path d="M871.625 775.625H876L878.5 776.875L879.125 780L877.25 781.875L872.25 782.5L871 780.625V776.25L871.625 775.625Z" fill="#FEFEFD"/>
<path d="M756 777.5L762.25 778.125L762.875 778.75V783.125L762.25 783.75H756L755.375 783.125V778.125L756 777.5Z" fill="#FEFEFD"/>
<path d="M792.875 778.125H798.5L799.125 778.75V783.125L797.875 783.75H792.875L792.25 783.125V778.75L792.875 778.125Z" fill="#FEFEFD"/>
<path d="M308.5 779.375L310.375 780L312.25 785.625L311.625 788.125H306.625L307.25 783.125L308.5 779.375Z" fill="#FEFEFD"/>
<path d="M332.875 89.375H351.625L364.125 91.875L376 96.25L386.625 101.875L395.375 108.125L403.5 115.625L407.875 120L413.5 127.5L418.5 136.25L423.5 148.75L426 158.125L427.25 165V182.5L425.375 193.75L416 225L413.5 237.5V265L416.625 280.625L419.75 291.25L424.75 302.5L431.625 314.375L437.25 321.875L444.75 330.625L454.125 338.75L464.75 346.25L477.875 353.125L489.125 357.5L503.5 361.25L522.875 365.625L533.5 369.375L546.625 376.25L554.75 382.5L564.125 391.25L569.75 398.125L576 408.75L579.75 416.875L583.5 428.75L585.375 438.75L586 450L584.125 465L581.625 474.375L576.625 486.25L571 496.25L564.125 504.375L557.875 511.25L549.125 518.125L541 523.125L529.75 528.125L519.75 531.25L509.125 533.125H491L477.875 530.625L468.5 527.5L458.5 522.5L450.375 517.5L444.75 513.125L438.5 507.5L432.875 501.25L428.5 495L422.875 485L418.5 474.375L415.375 461.875L414.75 458.125V439.375L417.875 424.375L425.375 400.625L428.5 385L429.125 378.75V364.375L426.625 347.5L422.875 334.375L419.125 324.375L413.5 313.75L406.625 303.75L401.625 297.5L394.125 289.375L387.25 283.125L379.125 277.5L367.875 271.25L357.875 266.875L344.125 262.5L318.5 256.875L306.625 252.5L296.625 246.875L289.125 241.25L282.25 235.625L276 229.375L269.75 220.625L264.125 210.625L259.75 199.375L256.625 185.625L256 180V171.875L257.875 158.125L261.625 145L266.625 133.75L272.875 124.375L279.75 116.25L284.75 110.625L292.875 104.375L302.875 98.75L311.625 94.375L324.125 90.625L332.875 89.375Z" fill="#0E274E"/>
<path d="M332.875 89.375H351.625L364.125 91.875L376 96.25L386.625 101.875L395.375 108.125L403.5 115.625L407.875 120L413.5 127.5L418.5 136.25L423.5 148.75L426 158.125L427.25 165V182.5L425.375 193.75L416 225L413.5 237.5V265L416.625 280.625L419.75 291.25L424.75 302.5L431.625 314.375L437.25 321.875L444.75 330.625L454.125 338.75L464.75 346.25L477.875 353.125L489.125 357.5L503.5 361.25L522.875 365.625L533.5 369.375L546.625 376.25L554.75 382.5L564.125 391.25L569.75 398.125L576 408.75L579.75 416.875L583.5 428.75L585.375 438.75L586 450L584.125 465L581.625 474.375L576.625 486.25L571 496.25L564.125 504.375L557.875 511.25L549.125 518.125L541 523.125L529.75 528.125L519.75 531.25L509.125 533.125H491L477.875 530.625L468.5 527.5L458.5 522.5L450.375 517.5L444.75 513.125L438.5 507.5L432.875 501.25L428.5 495L422.875 485L418.5 474.375L415.375 461.875L414.75 458.125V439.375L417.875 424.375L425.375 400.625L428.5 385L429.125 378.75V364.375L426.625 347.5L422.875 334.375L419.125 324.375L413.5 313.75L406.625 303.75L401.625 297.5L394.125 289.375L387.25 283.125L379.125 277.5L367.875 271.25L357.875 266.875L344.125 262.5L318.5 256.875L306.625 252.5L296.625 246.875L289.125 241.25L282.25 235.625L276 229.375L269.75 220.625L264.125 210.625L259.75 199.375L256.625 185.625L256 180V171.875L257.875 158.125L261.625 145L266.625 133.75L272.875 124.375L279.75 116.25L284.75 110.625L292.875 104.375L302.875 98.75L311.625 94.375L324.125 90.625L332.875 89.375Z" fill="#0E274E"/>
<path d="M579.125 89.375H599.75L612.25 91.875L623.5 96.25L633.5 101.25L640.375 105.625L647.25 111.25L654.125 117.5L660.375 125.625L666.625 136.875L671 146.875L674.125 157.5L675.375 165V183.125L672.875 196.25L664.75 222.5L661.625 238.125L661 243.75V259.375L662.875 272.5L666.625 287.5L670.375 296.875L675.375 306.875L681.625 316.875L686.625 323.125L692.25 329.375L699.75 336.875L708.5 343.75L718.5 349.375L731.625 355.625L744.125 359.375L766 364.375L776.625 367.5L791 374.375L800.375 380.625L807.875 387.5L815.375 395L821 403.125L827.25 415L831 425.625L832.875 434.375L834.125 446.875L833.5 456.875L831 469.375L827.25 480.625L822.25 490.625L817.875 497.5L811 506.25L805.375 511.875L796 518.75L784.125 525.625L776.625 528.75L761.625 532.5L756.625 533.125H738.5L726 530.625L713.5 526.25L702.875 520.625L692.875 513.125L680.375 500.625L674.75 491.875L669.75 482.5L666 472.5L663.5 461.875L662.875 458.125V438.125L666.625 422.5L672.25 405L676 388.75L677.25 379.375V365L675.375 350.625L671.625 335.625L667.875 325.625L661.625 313.75L654.125 302.5L647.25 294.375L641.625 288.125L631 280L622.25 274.375L612.25 269.375L599.75 264.375L581 260L566 256.875L553.5 251.875L544.125 246.875L533.5 238.75L526 231.875L517.875 220.625L509.75 205L506 192.5L504.125 180V171.875L505.375 160.625L508.5 148.75L512.25 138.75L516.625 130L521.625 123.125L527.25 116.25L535.375 108.125L546 101.25L556 96.25L564.75 92.5L574.75 90L579.125 89.375Z" fill="#0E274E"/>
<path d="M827.875 89.375H848.5L858.5 91.25L869.125 95L879.125 100L886.625 104.375L894.75 110.625L903.5 119.375L910.375 128.75L916.625 140.625L920.375 150.625L922.875 161.875L923.5 165.625V184.375L921 196.25L917.25 207.5L912.25 217.5L907.25 225L900.375 233.125L892.875 240.625L883.5 246.875L872.875 252.5L861 256.875L853.5 258.75L843.5 260H832.25L819.125 258.125L810.375 255.625L799.125 250.625L790.375 245.625L782.25 239.375L774.75 232.5L769.75 226.25L764.125 217.5L757.875 204.375L754.75 195L752.875 186.25V164.375L756 150L761 136.875L766 128.125L771.625 120.625L777.25 114.375L782.25 109.375L791.625 102.5L804.75 95.625L815.375 91.875L823.5 90L827.875 89.375Z" fill="#0E274E"/>
</svg>
