<?xml version="1.0" encoding="UTF-8"?>
<svg version="1.1" viewBox="0 0 2048 1536" width="1280" height="1280" xmlns="http://www.w3.org/2000/svg">
<path transform="translate(0)" d="m0 0h2048v1536h-2048z" fill="#FEFEFD"/>
<path transform="translate(619,239)" d="m0 0h30l20 4 19 7 17 9 14 10 13 12 7 7 9 12 8 14 8 20 4 15 2 11v28l-3 18-15 50-4 20v44l5 25 5 17 8 18 11 19 9 12 12 14 15 13 17 12 21 11 18 7 23 6 31 7 17 6 21 11 13 10 15 14 9 11 10 17 6 13 6 19 3 16 1 18-3 24-4 15-8 19-9 16-11 13-10 11-14 11-13 8-18 8-16 5-17 3h-29l-21-4-15-5-16-8-13-8-9-7-10-9-9-10-7-10-9-16-7-17-5-20-1-6v-30l5-24 12-38 5-25 1-10v-23l-4-27-6-21-6-16-9-17-11-16-8-10-12-13-11-10-13-9-18-10-16-7-22-7-41-9-19-7-16-9-12-9-11-9-10-10-10-14-9-16-7-18-5-22-1-9v-13l3-22 6-21 8-18 10-15 11-13 8-9 13-10 16-9 14-7 20-6z" fill="#0E274E"/>
<path transform="translate(1013,239)" d="m0 0h33l20 4 18 7 16 8 11 7 11 9 11 10 10 13 10 18 7 16 5 17 2 12v29l-4 21-13 42-5 25-1 9v25l3 21 6 24 6 15 8 16 10 16 8 10 9 10 12 12 14 11 16 9 21 10 20 6 35 8 17 5 23 11 15 10 12 11 12 12 9 13 10 19 6 17 3 14 2 20-1 16-4 20-6 18-8 16-7 11-11 14-9 9-15 11-19 11-12 5-24 6-8 1h-29l-20-4-20-7-17-9-16-12-20-20-9-14-8-15-6-16-4-17-1-6v-32l6-25 9-28 6-26 2-15v-23l-3-23-6-24-6-16-10-19-12-18-11-13-9-10-17-13-14-9-16-8-20-8-30-7-24-5-20-8-15-8-17-13-12-11-13-18-13-25-6-20-3-20v-13l2-18 5-19 6-16 7-14 8-11 9-11 13-13 17-11 16-8 14-6 16-4z" fill="#0E274E"/>
<path transform="translate(1411,239)" d="m0 0h33l16 3 17 6 16 8 12 7 13 10 14 14 11 15 10 19 6 16 4 18 1 6v30l-4 19-6 18-8 16-8 12-11 13-12 12-15 10-17 9-19 7-12 3-16 2h-18l-21-3-14-4-18-8-14-8-13-10-12-11-8-10-9-14-10-21-5-15-3-14v-35l5-23 8-21 8-14 9-12 9-10 8-8 15-11 21-11 17-6 13-3z" fill="#0E274E"/>
<path transform="translate(571,1080)" d="m0 0h19l16 3 15 6 10 6 10 9 7 7 9 15 5 12 3 11 2 17v9l-3 22-5 16-9 16-11 12-8 7-17 9-13 4-13 2h-13l-17-3-16-6-11-7-10-9-7-7-9-15-5-13-4-19v-27l3-15 6-16 8-13 11-12 12-9 15-7 14-4z" fill="#0E274E"/>
<path transform="translate(245,1085)" d="m0 0h11l8 4 5 6 5 16 11 46 7 29 1 5h2l1-8 15-47 9-29 5-11 4-6 10-5h9l8 4 6 8 6 14 22 69 4 10 1 1 3-18 9-39 6-28 5-12 6-7 4-2h13l9 6 4 7v12l-9 41-20 83-5 14-4 6-6 5-7 3h-14l-10-5-6-7-6-14-17-51-6-20v-3l-2 1-6 23-9 29-7 24-6 11-6 7-9 5h-16l-8-4-5-5-5-10-6-23-25-103-2-10v-8l4-8 5-4z" fill="#0E274E"/>
<path transform="translate(754,1088)" d="m0 0h27l18 1 12 3 13 7 10 9 7 11 5 16v12l-5 16-7 11-5 5-10 6-9 3h-3l4 8 22 22 11 14 3 5v11l-4 8-7 6h-14l-9-6-9-9-10-13-11-14-13-16-6-8v-2h-2v31l-1 19-4 11-7 6-2 1h-13l-8-4-5-8-1-3v-142l4-8 7-6 5-2z" fill="#0E274E"/>
<path transform="translate(919,1085)" d="m0 0h11l7 4 6 9 1 2 2 51 8-7 9-10 12-14 9-11 9-9 7-8 8-6 2-1h10l8 4 6 8 1 2v12l-8 11-12 13-17 17-2 3h-2l-1 3-5 4-3 4 2 5 7 8 14 14 8 10 14 14 7 8 6 9 2 4v12l-4 6-9 6h-11l-9-6-10-9-11-12-7-8-16-17-7-7-9-11-6-7-1 51-1 11-4 8-7 6-2 1h-13l-6-4-6-7-2-6-1-11v-27l1-108 5-8z" fill="#0E274E"/>
<path transform="translate(1247,1082)" d="m0 0h23l15 3 8 3 8 6 5 9v7l-4 8-7 7-2 1h-12l-14-4h-19l-7 4-1 2v12l5 3 15 6 27 9 14 8 9 9 7 14 1 4v18l-4 16-7 12-5 7-12 9-18 6-6 1h-30l-18-4-10-4-10-9-4-6-1-7 2-8 4-6 8-4h8l20 6 9 3h15l10-5 4-6v-10l-2-5-5-2-14-6-32-11-11-7-7-6-5-10-2-7-1-9 2-18 7-14 9-10 10-7 14-6z" fill="#0E274E"/>
<path transform="translate(1371,1086)" d="m0 0h76l13 1 9 3 5 6 2 4v10l-4 7-10 6-27 1v114l-3 14-4 6-7 4h-13l-6-4-6-7-2-5-1-8v-115h-28l-7-4-6-7-1-3v-9l5-8 9-5z" fill="#0E274E"/>
<path transform="translate(571,1117)" d="m0 0h20l10 4 9 7 6 8 5 11 3 12v22l-4 17-6 12-7 8-10 6-6 2h-19l-12-5-10-9-6-10-4-13-1-4v-30l5-15 7-11 10-8z" fill="#FEFEFD"/>
<path transform="translate(1114,1084)" d="m0 0 9 1 6 4 6 8 1 3 1 21v114l-1 12-6 10-7 5-9 1-5-1-8-7-4-6-1-3v-125l1-22 5-8 8-6z" fill="#0E274E"/>
<path transform="translate(1578,1181)" d="m0 0h13l16 8 1-5 1-2 6-1 8 4 3 2 1 4v60l-5 8-2 2-8 1-7-6-6 2-7 4h-14l-9-4-9-7-6-9-4-13v-14l2-9 6-10 7-8 10-6z" fill="#0E274E"/>
<path transform="translate(1231,1327)" d="m0 0h10l7 3 6 5 5 9 1 5v7l-4 10-5 6-8 4h-15l-6-4-7-8-2-6v-13l5-10 7-6z" fill="#0E274E"/>
<path transform="translate(1419,1327)" d="m0 0 10 1 6 3 7 8 2 4 1 6v8l-3 8-6 7-7 4h-14l-8-4-6-7-3-8v-9l3-9 7-8 6-3z" fill="#0E274E"/>
<path transform="translate(893,1329)" d="m0 0h8l4 5 7 16v2h2l2-9 4-9 4-5h7l3 4 4 17 3 21v4l-2 1h-7l-4-8-3-12-7 18-2 3-6-1-5-7-4-12-2-1-2 11-2 7-4 3-5-1-1-3 1-17 4-20z" fill="#0E274E"/>
<path transform="translate(187,1328)" d="m0 0 4 1 4 5 7 17 3-8 3-11 2-2h8l1 1v7l-6 26-4 10-2 2h-6l-5-4-6-15v-2l-3 3-6 15-4 3h-5l-5-6-5-16-4-19 1-5h8l4 8 4 13 4-8 6-13z" fill="#0E274E"/>
<path transform="translate(1671,1182)" d="m0 0h6l7 6 2 4v59l-3 7-3 3-8 1-5-3-4-5v-63l3-5z" fill="#0E274E"/>
<path transform="translate(760,1123)" d="m0 0h30l8 4 6 7 2 6v8l-5 8-6 5-7 2h-26l-2-6z" fill="#FEFEFD"/>
<path transform="translate(728,1329)" d="m0 0h6l4 3v2h2l11 14 5 4v-12l1-10 1-1 9 1 1 1v43l-1 2h-6l-8-7-9-11-6-7-1 24-1 1h-7l-3-1v-44z" fill="#0E274E"/>
<path transform="translate(1650,1329)" d="m0 0h5l5 4 7 8 10 11 2 1v-22l1-1h8l2 1v43l-1 2h-6l-8-7-13-16-2-1-1 22-1 2h-8l-2-1v-43z" fill="#0E274E"/>
<path transform="translate(365,1328)" d="m0 0h21l6 4 4 6v10l-7 8h-2l8 11 2 4-1 5-7-1-9-8-4-5h-2l-1 11-2 3h-7l-2-5v-39z" fill="#0E274E"/>
<path transform="translate(1471,1328)" d="m0 0h21l6 3 4 5 2 5-1 7-7 8h-2l10 14-1 4-2 2-5-1-6-5-8-10-1 1-1 13-2 2h-7l-2-6v-37z" fill="#0E274E"/>
<path transform="translate(244,1330)" d="m0 0h8l1 1 1 15h17l1-15 1-1h10v46h-8l-3-2v-17l-18 1-1 17-1 1h-8l-2-1-1-3v-37l1-4z" fill="#0E274E"/>
<path transform="translate(1583,1329)" d="m0 0h6l3 3 1 3 1 23 2 5 1 1h9l2-2 1-6 1-21 3-5 1-1h6l3 7v22l-3 9-5 5-5 3-2 1h-13l-8-4-5-7-2-9v-21l2-5z" fill="#0E274E"/>
<path transform="translate(578,1329)" d="m0 0h6l6 5 6 15 5 16 1 10-5 1-4-2-3-5h-16l-4 7-9-1 1-10 9-27 6-8z" fill="#0E274E"/>
<path transform="translate(1345,1331)" d="m0 0h21l7 4 4 7v8l-7 8-5 2-11 1-1 14-2 1h-6l-3-3v-38z" fill="#0E274E"/>
<path transform="translate(1287,1331)" d="m0 0h21l6 4 4 5 1 9-6 8-6 3-12 1v13l-2 2h-6l-3-3v-39z" fill="#0E274E"/>
<path transform="translate(1131,1327)" d="m0 0h10l5 3 2 3-1 4-3 1-12 1v4l10 4 8 6 2 4v7l-4 7-5 4-2 1h-15l-6-4-1-1v-6l1-1h18l1-4-16-8-4-5v-11l5-6z" fill="#0E274E"/>
<path transform="translate(1585,1202)" d="m0 0 9 1 7 6 3 9-1 11-6 9-6 3h-7l-6-4-3-3-2-6v-13l3-6 6-6z" fill="#FEFEFD"/>
<path transform="translate(966,1331)" d="m0 0h23v9l-2 1-11 1v5l12 1v8l-1 1-12 1 1 7 13 2 1 8-1 1h-23l-3-3v-39z" fill="#0E274E"/>
<path transform="translate(1019,1331)" d="m0 0h22v9l-13 1-1 6 13 1v8l-1 1-10 1-1 1v7h7l6 2v8l-2 1h-19l-4-3-1-3v-35l2-4z" fill="#0E274E"/>
<path transform="translate(676,1331)" d="m0 0h24v9l-13 2v4l12 2 1 1v6l-4 2h-10v8l1 1 13 1 1 1v8h-24l-2-1-1-16v-24z" fill="#0E274E"/>
<path transform="translate(312,1331)" d="m0 0h23v10l-13 1v5l12 1 1 1v6l-2 2-11 1v8l13 2 1 1v7h-24l-2-2v-40z" fill="#0E274E"/>
<path transform="translate(423,1331)" d="m0 0h25v9l-15 1v6l14 1v8l-13 2v8l13 2 1 1v6l-1 1h-22l-2-1-1-3v-40z" fill="#0E274E"/>
<path transform="translate(1836,1329)" d="m0 0 6 1 1 5-6 10-5 7-2 13-2 10-1 1-7-1-2-5-1-16-11-18-1-5 1-1h7l5 4 5 6 3 1 2-4 5-6z" fill="#0E274E"/>
<path transform="translate(510,1331)" d="m0 0h31l1 1-1 7-7 2-1 28-2 6-2 1h-7l-2-2-1-32-1-1-7-1-2-6z" fill="#0E274E"/>
<path transform="translate(793,1331)" d="m0 0h30l2 4-2 4-7 3-2 32-3 2h-6l-2-2-1-6-1-27-8-1-1-2v-6z" fill="#0E274E"/>
<path transform="translate(1751,1331)" d="m0 0h31l1 4-2 4-7 3-1 27-1 6h-10l-2-7-1-27-8-3-1-1v-5z" fill="#0E274E"/>
<path transform="translate(1067,1331)" d="m0 0h30l1 5-1 4-2 1h-6l-1 31-4 4h-5l-2-2-1-5-1-27-9-3v-7z" fill="#0E274E"/>
<path transform="translate(1526,1331)" d="m0 0h31v7l-2 2-7 1v22l-1 12-5 1-6-2-1-19v-14l-9-2-1-1v-6z" fill="#0E274E"/>
<path transform="translate(629,1329)" d="m0 0 7 1 1 1 2 36 12 1 1 1v7h-23l-3-3-1-15v-26z" fill="#0E274E"/>
<path transform="translate(1231,1338)" d="m0 0h11l5 5 1 3v9l-2 6-4 4-4 2h-6l-5-4-3-8v-8l4-7z" fill="#FEFEFD"/>
<path transform="translate(1417,1338)" d="m0 0h10l5 4 1 3v11l-4 8-6 3-7-1-5-6-1-3v-11l4-6z" fill="#FEFEFD"/>
<path transform="translate(1670,1149)" d="m0 0h7l6 3 4 5v9l-4 6-4 3h-9l-6-4-3-6v-6l4-7z" fill="#0E274E"/>
<path transform="translate(1715,1330)" d="m0 0h11v45l-1 1-9-1-1-1z" fill="#0E274E"/>
<path transform="translate(1500,1237)" d="m0 0h8l5 3 3 5 1 7-4 6-5 4h-7l-6-4-3-5v-7l4-6z" fill="#0E274E"/>
<path transform="translate(373,1337)" d="m0 0h9l4 4-1 5-5 2h-6l-1-1z" fill="#FEFEFD"/>
<path transform="translate(1481,1337)" d="m0 0h7l4 2 1 5-3 3-8 1-2-3v-7z" fill="#FEFEFD"/>
<path transform="translate(1296,1340)" d="m0 0 10 1 1 1v7l-1 1h-10l-1-1v-8z" fill="#FEFEFD"/>
<path transform="translate(1355,1341)" d="m0 0h9l1 1v7l-2 1h-8l-1-1v-7z" fill="#FEFEFD"/>
<path transform="translate(580,1343)" d="m0 0 3 1 3 9-1 4h-8l1-8z" fill="#FEFEFD"/>
</svg>
